<svg width="32" height="28" viewBox="0 0 32 28" fill="none" xmlns="http://www.w3.org/2000/svg">
<path d="M16 27.9876C14.968 27.0982 13.8016 26.1732 12.568 25.189H12.552C8.20802 21.7374 3.28483 17.8318 1.11043 13.152C0.396064 11.6621 0.0174828 10.0411 1.82495e-05 8.39749C-0.00475261 6.14228 0.926068 3.98038 2.58212 2.40039C4.23818 0.820409 6.47968 -0.0442817 8.80002 0.00174799C10.689 0.00464732 12.5373 0.53516 14.1248 1.53008C14.8224 1.97004 15.4535 2.50221 16 3.11128C16.5496 2.5046 17.1809 1.97274 17.8768 1.53008C19.4636 0.534963 21.3114 0.00441994 23.2 0.00174799C25.5203 -0.0442817 27.7618 0.820409 29.4179 2.40039C31.0739 3.98038 32.0048 6.14228 32 8.39749C31.9837 10.0437 31.605 11.6675 30.8896 13.1597C28.7152 17.8396 23.7936 21.7436 19.4496 25.189L19.4336 25.2014C18.1984 26.1794 17.0336 27.1045 16.0016 28L16 27.9876ZM8.80002 3.11128C7.30964 3.09316 5.87214 3.64743 4.80003 4.65361C3.76704 5.63959 3.18972 6.9905 3.19989 8.39749C3.21815 9.59544 3.49735 10.7761 4.01923 11.8615C5.04564 13.8807 6.4306 15.7081 8.11042 17.2597C9.69601 18.8144 11.52 20.3195 13.0976 21.585C13.5344 21.9349 13.9792 22.2878 14.424 22.6407L14.704 22.8631C15.1312 23.202 15.5728 23.5534 16 23.8985L16.0208 23.8799L16.0304 23.8721H16.04L16.0544 23.8612H16.0624H16.0704L16.0992 23.8379L16.1648 23.7866L16.176 23.7773L16.1936 23.7648H16.2032L16.2176 23.7524L17.28 22.905L17.5584 22.6827C18.008 22.3267 18.4528 21.9737 18.8896 21.6239C20.4672 20.3583 22.2928 18.8549 23.8784 17.2923C25.5584 15.7415 26.9434 13.9146 27.9696 11.8957C28.5009 10.8009 28.7841 9.60789 28.8 8.39749C28.8066 6.99484 28.2296 5.64912 27.2 4.66605C26.1299 3.65533 24.6922 3.09649 23.2 3.11128C21.3791 3.09625 19.6383 3.83793 18.416 5.14958L16 7.85488L13.584 5.14958C12.3617 3.83793 10.6209 3.09625 8.80002 3.11128Z" fill="white"/>
</svg>
