<svg width="29" height="32" viewBox="0 0 29 32" fill="none" xmlns="http://www.w3.org/2000/svg">
<path d="M27.1875 32H1.8125C0.811484 32 0 31.2292 0 30.2783V13.676C0.0280777 13.254 0.216846 12.8562 0.531062 12.5568L13.2186 0.504952C13.5585 0.181656 14.0198 0 14.5009 0C14.982 0 15.4433 0.181656 15.7832 0.504952L28.4707 12.5568C28.811 12.8793 29.0016 13.3175 29 13.7741V30.2783C29 31.2292 28.1885 32 27.1875 32ZM14.5 4.15668L3.625 14.4869V28.5566H25.375V14.4869L14.5 4.15668ZM14.5 25.1115C14.123 24.793 13.6971 24.4607 13.2457 24.1095L13.1606 24.044C11.0635 22.4187 8.44806 20.3957 8.44806 17.8803C8.44834 17.047 8.80197 16.2488 9.42913 15.666C10.0563 15.0832 10.9041 14.7649 11.7812 14.783C12.8184 14.7804 13.8074 15.1981 14.5 15.9314C15.1927 15.1983 16.1817 14.7806 17.2187 14.783C18.095 14.7668 18.9412 15.0862 19.5668 15.6691C20.1924 16.2521 20.5448 17.0496 20.5447 17.8821C20.5447 20.4061 17.9129 22.4428 15.7996 24.0802L15.6962 24.1611C15.2667 24.4951 14.8607 24.8102 14.4982 25.1149L14.5 25.1115Z" fill="white"/>
</svg>
